<svg width="204" height="24" viewBox="0 0 204 24" fill="none" xmlns="http://www.w3.org/2000/svg">
<path d="M54.7911 1.2666H47.1699V23.2205H54.7911V1.2666Z" fill="#3B4752"/>
<path d="M134.044 1.2666H126.423V23.2205H134.044V1.2666Z" fill="#3B4752"/>
<path d="M16.6079 12.2133C17.6441 11.7521 18.5242 11 19.1413 10.0483C19.7583 9.09663 20.0859 7.98629 20.0842 6.85207C20.0842 3.76753 17.1184 1.26697 13.4597 1.2666H0.429688V23.2206H13.4597C18.2504 23.2204 20.4674 21.7896 20.4674 17.282C20.3842 16.1541 19.9752 15.0746 19.29 14.1748C18.6048 13.275 17.6731 12.5935 16.6079 12.2133ZM7.8754 6.11179H10.0379C11.2625 6.11179 12.2552 6.75699 12.2552 7.86372C12.2552 8.83129 11.7068 9.53354 10.2858 9.53354H7.8754V6.11179ZM10.2858 18.5095H7.8754V14.9607H10.0379C11.9717 14.9607 12.4642 15.8721 12.4642 16.8397C12.4642 17.8072 11.924 18.5095 10.2858 18.5095Z" fill="#3B4752"/>
<path d="M79.2544 7.03811C77.6664 2.83984 73.8828 0.192762 68.4326 0.192762C65.2978 0.167685 62.2815 1.38879 60.0471 3.58749C57.8126 5.78619 56.5431 8.78242 56.5176 11.9171C56.5176 18.939 60.9023 23.3555 66.7803 23.3555C68.1052 23.3932 69.4243 23.1687 70.6621 22.6949C71.8999 22.2211 73.0319 21.5073 73.9929 20.5947V23.2205H79.2673V13.3787H72.7142C72.379 14.4032 71.6819 15.2704 70.7533 15.8179C69.8247 16.3654 68.7285 16.5557 67.6697 16.3531C66.611 16.1505 65.6624 15.5689 65.0015 14.7173C64.3407 13.8657 64.0129 12.8024 64.0796 11.7265C64.039 10.5556 64.4644 9.41633 65.2626 8.55862C66.0607 7.70091 67.1664 7.19475 68.3372 7.15112C69.2652 7.10001 70.1864 7.33561 70.9759 7.82597C71.7654 8.31633 72.3849 9.0377 72.7504 9.89219L79.2544 7.03811Z" fill="#3B4752"/>
<path d="M94.9035 1.26709V8.77209H89.3915V1.26709H81.7705V23.2211H89.3915V15.7941H94.9035V23.2211H102.525V1.26709H94.9035Z" fill="#3B4752"/>
<path d="M124.163 1.24121H104.05V7.46921L110.378 7.03021V23.2212H117.999V7.04021L124.163 7.46921V1.24121Z" fill="#3B4752"/>
<path d="M147.999 1.2668H136.377V23.2207H146.507C154.973 23.2207 157.499 18.7387 157.499 12.3166C157.499 3.8254 152.335 1.2406 147.999 1.2668ZM145.737 17.7285H143.909V6.80849H145.737C148.262 6.80849 149.73 9.37006 149.73 12.2926C149.73 15.215 148.743 17.7285 145.737 17.7285Z" fill="#3B4752"/>
<path d="M176.766 6.75108V1.26709H167.369H165.701H159.748V23.2211H165.677H167.369H176.742V17.7371H167.369V15.1071H176.549V9.62309H167.369V6.75108H176.766Z" fill="#3B4752"/>
<path d="M39.9339 13.7079C40.93 13.1841 41.7495 12.3781 42.2897 11.3907C42.8299 10.4034 43.067 9.27864 42.971 8.15727C42.856 3.74183 40.6464 1.36548 35.5222 1.2666H22.4922V23.2205H29.9651V17.0962H32.9941L37.0054 23.2205H46.2315L39.9339 13.7079ZM32.3755 11.6311H29.9651V6.5778H31.9138C34.1591 6.5778 35.0276 7.56416 35.0276 9.00456C35.0587 9.35952 35.0112 9.71698 34.8886 10.0515C34.7659 10.3861 34.5711 10.6895 34.318 10.9402C34.0648 11.191 33.7595 11.3829 33.4237 11.5023C33.088 11.6217 32.7301 11.6657 32.3755 11.6311Z" fill="#3B4752"/>
<path d="M199.001 16.0913C198.857 16.5512 198.646 16.9875 198.376 17.3865C197.659 18.5068 197.104 19.7233 196.73 20.9996C196.557 21.7266 196.485 22.474 196.516 23.2206H203.091L199.001 16.0913Z" fill="#3B4752"/>
<path d="M192.43 20.9995C192.055 19.7232 191.501 18.5066 190.784 17.3863C190.219 16.5499 189.918 15.5627 189.922 14.5533C189.888 13.3 190.353 12.0845 191.214 11.1735C192.075 10.2626 193.263 9.73065 194.516 9.69458H194.643C194.887 9.69642 195.131 9.71871 195.371 9.76123L190.379 1.05957L177.667 23.2205H192.644C192.674 22.4738 192.602 21.7265 192.43 20.9995Z" fill="#3B4752"/>
</svg>
