<svg width="223" height="253" viewBox="0 0 223 253" fill="none" xmlns="http://www.w3.org/2000/svg">
<path d="M57.9106 201.095C57.5444 201.095 57.3027 200.883 57.3027 200.546C57.3027 200.399 57.3394 200.26 57.3979 200.084L60.4082 191.669C60.5913 191.156 60.8477 190.922 61.3164 190.922C61.7852 190.922 62.0415 191.156 62.2246 191.669L65.2349 200.084C65.2935 200.246 65.3301 200.399 65.3301 200.539C65.3301 200.883 65.0884 201.095 64.7148 201.095C64.3633 201.095 64.1655 200.927 64.0264 200.495L63.1841 197.997H59.4414L58.5991 200.495C58.46 200.934 58.2622 201.095 57.9106 201.095ZM59.7856 196.964H62.8398L61.3384 192.511H61.2871L59.7856 196.964ZM69.5269 197.814V196.481C69.5269 194.489 70.6987 193.17 72.7129 193.17C73.2842 193.17 73.9653 193.28 74.5513 193.632C75.042 193.925 75.5107 194.416 75.5107 194.936C75.5107 195.265 75.3203 195.521 74.9688 195.521C74.6245 195.521 74.4634 195.294 74.3169 195.089C73.936 194.555 73.4087 194.291 72.7275 194.291C71.4531 194.291 70.8086 195.221 70.8086 196.547V197.748C70.8086 199.059 71.4312 200.011 72.7349 200.011C73.3208 200.011 73.8921 199.821 74.3462 199.213C74.478 199.037 74.6611 198.781 74.9907 198.781C75.2617 198.781 75.5327 198.949 75.5327 199.359C75.5327 199.865 75.1152 200.355 74.5513 200.678C73.9507 201.029 73.2915 201.132 72.7349 201.132C70.6987 201.132 69.5269 199.828 69.5269 197.814ZM80.4692 193.17C82.3589 193.17 83.7725 194.408 83.7725 196.562V197.733C83.7725 199.894 82.3589 201.132 80.4692 201.132C78.5723 201.132 77.1587 199.894 77.1587 197.733V196.562C77.1587 194.408 78.5723 193.17 80.4692 193.17ZM80.4692 194.269C79.2241 194.269 78.4331 195.221 78.4331 196.671V197.624C78.4331 199.11 79.2241 200.041 80.4692 200.041C81.7144 200.041 82.4907 199.11 82.4907 197.624V196.671C82.4907 195.221 81.7144 194.269 80.4692 194.269ZM91.9902 200.37C91.9902 200.81 91.7485 201.073 91.353 201.073C90.9575 201.073 90.7231 200.81 90.7231 200.37V196.115C90.7231 194.921 90.1226 194.291 89.0386 194.291C87.7715 194.291 86.9731 195.192 86.9731 196.693V200.37C86.9731 200.81 86.7388 201.073 86.3433 201.073C85.9478 201.073 85.7134 200.81 85.7134 200.37V193.932C85.7134 193.493 85.9551 193.229 86.3433 193.229C86.7314 193.229 86.9658 193.485 86.9658 193.917V194.708H87.0317C87.354 193.734 88.189 193.178 89.3682 193.178C91.0308 193.178 91.9902 194.115 91.9902 195.734V200.37ZM95.8721 200.37C95.8721 200.81 95.6304 201.073 95.2349 201.073C94.8467 201.073 94.6123 200.81 94.6123 200.37V194.364H93.9751C93.6162 194.364 93.3892 194.167 93.3892 193.837C93.3892 193.5 93.6089 193.31 93.9751 193.31H94.6123V192.555C94.6123 191.09 95.3301 190.38 96.7803 190.38C97.1758 190.38 97.4834 190.46 97.6665 190.6C97.813 190.717 97.8936 190.856 97.8936 191.032C97.8936 191.325 97.7178 191.508 97.4248 191.508C97.1172 191.508 97.0586 191.449 96.707 191.449C96.1431 191.449 95.8647 191.786 95.8647 192.497V193.31H96.9487C97.3076 193.31 97.5347 193.507 97.5347 193.837C97.5347 194.167 97.3076 194.364 96.9487 194.364H95.8721V200.37ZM99.146 191.376C99.146 190.915 99.5049 190.585 99.9443 190.585C100.42 190.585 100.772 190.915 100.772 191.376C100.772 191.837 100.42 192.182 99.9443 192.182C99.5049 192.182 99.146 191.837 99.146 191.376ZM100.582 200.37C100.582 200.846 100.311 201.073 99.9517 201.073C99.5928 201.073 99.3218 200.839 99.3218 200.37V193.932C99.3218 193.456 99.6001 193.229 99.959 193.229C100.318 193.229 100.582 193.463 100.582 193.932V200.37ZM107.825 199.718C107.525 200.377 106.749 200.927 105.635 200.927C103.965 200.927 102.61 199.711 102.61 197.711V196.408C102.61 194.408 103.965 193.178 105.621 193.178C106.822 193.178 107.62 193.822 107.891 194.459H107.95V193.917C107.95 193.449 108.191 193.229 108.543 193.229C108.902 193.229 109.151 193.456 109.151 193.932V200.78C109.151 202.897 107.796 203.893 105.877 203.893C105.027 203.893 104.273 203.703 103.724 203.366C103.255 203.08 102.896 202.663 102.896 202.252C102.896 201.938 103.108 201.71 103.431 201.71C103.738 201.71 103.885 201.908 104.119 202.128C104.412 202.399 104.91 202.787 105.826 202.787C107.1 202.787 107.898 202.047 107.898 200.81V199.718H107.825ZM103.885 197.462C103.885 198.883 104.734 199.835 105.95 199.835C107.217 199.835 107.891 198.803 107.891 197.704V196.452C107.891 195.324 107.195 194.276 105.906 194.276C104.683 194.276 103.885 195.243 103.885 196.664V197.462ZM116.255 199.726C116.021 200.355 115.384 201.125 113.89 201.125C112.469 201.125 111.333 200.436 111.333 198.656V193.903C111.333 193.427 111.604 193.222 111.971 193.222C112.33 193.222 112.601 193.427 112.601 193.903V198.334C112.601 199.608 113.37 200.019 114.249 200.019C115.494 200.019 116.321 199.191 116.321 198.202V193.903C116.321 193.427 116.592 193.222 116.958 193.222C117.317 193.222 117.588 193.427 117.588 193.903V200.399C117.588 200.875 117.317 201.073 116.958 201.073C116.6 201.073 116.329 200.868 116.329 200.414V199.726H116.255ZM121.089 200.37C121.089 200.81 120.862 201.073 120.459 201.073C120.064 201.073 119.83 200.81 119.83 200.37V193.932C119.83 193.5 120.079 193.229 120.467 193.229C120.855 193.229 121.082 193.493 121.082 193.917V194.21H121.119C121.521 193.522 122.115 193.178 122.818 193.178C123.038 193.178 123.221 193.222 123.36 193.31C123.521 193.405 123.609 193.573 123.609 193.771C123.609 193.998 123.528 194.152 123.36 194.247C123.228 194.32 123.045 194.35 122.803 194.35C121.675 194.357 121.089 194.965 121.089 196.232V200.37ZM129.19 199.975C128.729 200.722 127.945 201.125 126.971 201.125C125.469 201.125 124.458 200.172 124.458 198.759C124.458 197.36 125.477 196.488 127.168 196.488H129.205V195.741C129.205 194.752 128.611 194.247 127.505 194.247C126.854 194.247 126.414 194.474 125.953 195.001C125.777 195.207 125.608 195.28 125.381 195.28C125.088 195.28 124.891 195.082 124.891 194.782C124.891 194.35 125.191 193.925 125.806 193.573C126.253 193.317 126.832 193.178 127.586 193.178C129.439 193.178 130.464 194.086 130.464 195.734V200.377C130.464 200.817 130.237 201.073 129.849 201.073C129.476 201.073 129.256 200.824 129.241 200.407V199.975H129.19ZM125.748 198.729C125.748 199.528 126.377 200.07 127.315 200.07C128.377 200.07 129.205 199.337 129.205 198.378V197.506H127.234C126.29 197.506 125.748 197.946 125.748 198.729ZM136.199 201.125C135.115 201.125 134.258 200.648 133.914 199.865H133.848V200.385C133.848 200.824 133.628 201.073 133.24 201.073C132.859 201.073 132.64 200.817 132.64 200.37V191.134C132.64 190.695 132.874 190.431 133.27 190.431C133.665 190.431 133.899 190.695 133.899 191.134V194.518H133.965C134.2 193.72 135.123 193.178 136.243 193.178C138.052 193.178 139.195 194.445 139.195 196.466V197.829C139.195 199.857 138.038 201.125 136.199 201.125ZM133.899 197.88C133.899 199.125 134.764 200.026 135.972 200.026C137.21 200.026 137.913 199.132 137.913 197.58V196.781C137.913 195.207 137.195 194.276 135.943 194.276C134.69 194.276 133.899 195.17 133.899 196.583V197.88ZM141.861 201.073C141.502 201.073 141.238 200.846 141.238 200.37V191.134C141.238 190.658 141.502 190.431 141.861 190.431C142.22 190.431 142.491 190.658 142.491 191.134V200.37C142.491 200.846 142.22 201.073 141.861 201.073ZM144.483 197.77V196.554C144.483 194.562 145.801 193.17 147.698 193.17C149.537 193.17 150.826 194.511 150.826 196.4C150.826 197.235 150.679 197.47 150.137 197.47H145.757V197.873C145.765 199.206 146.563 200.041 147.881 200.041C148.533 200.041 149.039 199.843 149.449 199.447C149.844 199.081 149.932 199.022 150.145 199.022C150.423 199.022 150.635 199.25 150.635 199.557C150.635 199.784 150.496 200.062 150.276 200.29C149.793 200.81 148.855 201.132 147.823 201.132C145.757 201.132 144.483 199.85 144.483 197.77ZM145.757 196.444H149.573V196.422C149.573 195.097 148.848 194.254 147.713 194.254C146.548 194.254 145.757 195.133 145.757 196.422V196.444ZM155.601 201.095C155.235 201.095 154.993 200.883 154.993 200.546C154.993 200.399 155.03 200.26 155.088 200.084L158.099 191.669C158.282 191.156 158.538 190.922 159.007 190.922C159.476 190.922 159.732 191.156 159.915 191.669L162.925 200.084C162.984 200.246 163.021 200.399 163.021 200.539C163.021 200.883 162.779 201.095 162.405 201.095C162.054 201.095 161.856 200.927 161.717 200.495L160.875 197.997H157.132L156.29 200.495C156.15 200.934 155.953 201.095 155.601 201.095ZM157.476 196.964H160.53L159.029 192.511H158.978L157.476 196.964ZM165.24 201.073C164.844 201.073 164.603 200.802 164.603 200.37V191.632C164.603 191.2 164.844 190.929 165.24 190.929C165.635 190.929 165.884 191.2 165.884 191.632V200.37C165.884 200.802 165.635 201.073 165.24 201.073ZM37.6958 226.109C37.6958 226.549 37.4614 226.812 37.0659 226.812C36.6704 226.812 36.436 226.549 36.436 226.109V216.932C36.436 216.485 36.6558 216.229 37.0366 216.229C37.4175 216.229 37.6372 216.478 37.6372 216.917V217.525H37.7031C38.0181 216.69 38.9116 216.178 40.0176 216.178C41.8267 216.178 42.9692 217.452 42.9692 219.466V220.829C42.9692 222.857 41.812 224.125 39.9736 224.125C38.9116 224.125 38.1133 223.67 37.7617 222.865H37.6958V226.109ZM37.6958 220.909C37.6958 222.162 38.5308 223.026 39.7393 223.026C40.9844 223.026 41.7021 222.125 41.7021 220.565V219.73C41.7021 218.163 40.9844 217.276 39.7026 217.276C38.4648 217.276 37.6958 218.126 37.6958 219.532V220.909ZM44.6025 220.77V219.554C44.6025 217.562 45.9209 216.17 47.8179 216.17C49.6562 216.17 50.9453 217.511 50.9453 219.4C50.9453 220.235 50.7988 220.47 50.2568 220.47H45.877V220.873C45.8843 222.206 46.6826 223.041 48.001 223.041C48.6528 223.041 49.1582 222.843 49.5684 222.447C49.9639 222.081 50.0518 222.022 50.2642 222.022C50.5425 222.022 50.7549 222.25 50.7549 222.557C50.7549 222.784 50.6157 223.062 50.396 223.29C49.9126 223.81 48.9751 224.132 47.9424 224.132C45.877 224.132 44.6025 222.85 44.6025 220.77ZM45.877 219.444H49.6929V219.422C49.6929 218.097 48.9678 217.254 47.8325 217.254C46.668 217.254 45.877 218.133 45.877 219.422V219.444ZM54.1094 223.37C54.1094 223.81 53.8823 224.073 53.4795 224.073C53.084 224.073 52.8496 223.81 52.8496 223.37V216.932C52.8496 216.5 53.0986 216.229 53.4868 216.229C53.875 216.229 54.1021 216.493 54.1021 216.917V217.21H54.1387C54.5415 216.522 55.1348 216.178 55.8379 216.178C56.0576 216.178 56.2407 216.222 56.3799 216.31C56.541 216.405 56.6289 216.573 56.6289 216.771C56.6289 216.998 56.5483 217.152 56.3799 217.247C56.248 217.32 56.0649 217.35 55.8232 217.35C54.6953 217.357 54.1094 217.965 54.1094 219.232V223.37ZM57.4932 222.433C57.4932 222.081 57.7056 221.869 58.0425 221.869C58.2476 221.869 58.4014 221.971 58.6577 222.286C59.1265 222.828 59.7271 223.099 60.5107 223.099C61.4995 223.099 62.1221 222.652 62.1221 221.942C62.1221 221.4 61.7266 220.99 61.0527 220.829L59.5879 220.492C58.2476 220.184 57.603 219.51 57.603 218.426C57.603 217.057 58.7017 216.17 60.4155 216.17C61.1846 216.17 61.895 216.368 62.437 216.727C62.8984 217.035 63.1841 217.452 63.1841 217.833C63.1841 218.155 62.9717 218.353 62.6494 218.353C62.4224 218.353 62.3052 218.28 61.9976 217.965C61.4849 217.416 61.0381 217.203 60.3643 217.203C59.4194 217.203 58.8408 217.635 58.8408 218.346C58.8408 218.902 59.1997 219.239 59.9688 219.43L61.397 219.774C62.7373 220.096 63.3599 220.748 63.3599 221.839C63.3599 223.246 62.2466 224.132 60.4448 224.132C59.6611 224.132 58.9214 223.949 58.3501 223.626C57.8008 223.312 57.4932 222.879 57.4932 222.433ZM68.2012 216.17C70.0908 216.17 71.5044 217.408 71.5044 219.562V220.733C71.5044 222.894 70.0908 224.132 68.2012 224.132C66.3042 224.132 64.8906 222.894 64.8906 220.733V219.562C64.8906 217.408 66.3042 216.17 68.2012 216.17ZM68.2012 217.269C66.9561 217.269 66.165 218.221 66.165 219.671V220.624C66.165 222.11 66.9561 223.041 68.2012 223.041C69.4463 223.041 70.2227 222.11 70.2227 220.624V219.671C70.2227 218.221 69.4463 217.269 68.2012 217.269ZM79.7222 223.37C79.7222 223.81 79.4805 224.073 79.085 224.073C78.6895 224.073 78.4551 223.81 78.4551 223.37V219.115C78.4551 217.921 77.8545 217.291 76.7705 217.291C75.5034 217.291 74.7051 218.192 74.7051 219.693V223.37C74.7051 223.81 74.4707 224.073 74.0752 224.073C73.6797 224.073 73.4453 223.81 73.4453 223.37V216.932C73.4453 216.493 73.687 216.229 74.0752 216.229C74.4634 216.229 74.6978 216.485 74.6978 216.917V217.708H74.7637C75.0859 216.734 75.9209 216.178 77.1001 216.178C78.7627 216.178 79.7222 217.115 79.7222 218.734V223.37ZM86.1602 222.975C85.6987 223.722 84.915 224.125 83.9409 224.125C82.4395 224.125 81.4287 223.172 81.4287 221.759C81.4287 220.36 82.4468 219.488 84.1387 219.488H86.1748V218.741C86.1748 217.752 85.5815 217.247 84.4756 217.247C83.8237 217.247 83.3843 217.474 82.9229 218.001C82.7471 218.207 82.5786 218.28 82.3516 218.28C82.0586 218.28 81.8608 218.082 81.8608 217.782C81.8608 217.35 82.1611 216.925 82.7764 216.573C83.2231 216.317 83.8018 216.178 84.5562 216.178C86.4092 216.178 87.4346 217.086 87.4346 218.734V223.377C87.4346 223.817 87.2075 224.073 86.8193 224.073C86.4458 224.073 86.2261 223.824 86.2114 223.407V222.975H86.1602ZM82.7178 221.729C82.7178 222.528 83.3477 223.07 84.2852 223.07C85.3472 223.07 86.1748 222.337 86.1748 221.378V220.506H84.2046C83.2598 220.506 82.7178 220.946 82.7178 221.729ZM95.3008 216.317L96.209 214.251C96.2896 214.032 96.458 213.922 96.6631 213.922C96.978 213.922 97.2051 214.222 97.1172 214.515L96.5166 216.617C96.4287 216.947 96.187 217.137 95.8794 217.137C95.4692 217.137 95.1323 216.712 95.3008 216.317ZM92.3125 216.317L93.2207 214.251C93.3086 214.032 93.4697 213.922 93.6748 213.922C93.9897 213.922 94.2168 214.222 94.1289 214.515L93.5283 216.617C93.4404 216.947 93.2061 217.137 92.8911 217.137C92.481 217.137 92.144 216.712 92.3125 216.317ZM103.475 222.784C103.255 223.561 102.288 224.125 101.153 224.125C99.3511 224.125 98.1865 222.857 98.1865 220.924V219.386C98.1865 217.445 99.3804 216.178 101.189 216.178C102.266 216.178 103.116 216.654 103.423 217.438H103.482V214.134C103.482 213.688 103.716 213.431 104.112 213.431C104.507 213.431 104.742 213.688 104.742 214.134V223.37C104.742 223.817 104.529 224.073 104.141 224.073C103.76 224.073 103.548 223.824 103.541 223.385V222.784H103.475ZM99.4683 220.638C99.4683 222.14 100.201 223.026 101.453 223.026C102.691 223.026 103.482 222.154 103.482 220.77V219.386C103.482 218.163 102.61 217.276 101.409 217.276C100.186 217.276 99.4683 218.177 99.4683 219.664V220.638ZM108.294 223.37C108.294 223.81 108.067 224.073 107.664 224.073C107.269 224.073 107.034 223.81 107.034 223.37V216.932C107.034 216.5 107.283 216.229 107.671 216.229C108.06 216.229 108.287 216.493 108.287 216.917V217.21H108.323C108.726 216.522 109.319 216.178 110.022 216.178C110.242 216.178 110.425 216.222 110.564 216.31C110.726 216.405 110.813 216.573 110.813 216.771C110.813 216.998 110.733 217.152 110.564 217.247C110.433 217.32 110.25 217.35 110.008 217.35C108.88 217.357 108.294 217.965 108.294 219.232V223.37ZM112.293 214.376C112.293 213.915 112.652 213.585 113.091 213.585C113.567 213.585 113.919 213.915 113.919 214.376C113.919 214.837 113.567 215.182 113.091 215.182C112.652 215.182 112.293 214.837 112.293 214.376ZM113.729 223.37C113.729 223.846 113.458 224.073 113.099 224.073C112.74 224.073 112.469 223.839 112.469 223.37V216.932C112.469 216.456 112.747 216.229 113.106 216.229C113.465 216.229 113.729 216.463 113.729 216.932V223.37ZM117.793 223.37C117.793 223.81 117.552 224.073 117.156 224.073C116.768 224.073 116.534 223.81 116.534 223.37V217.364H115.896C115.538 217.364 115.311 217.167 115.311 216.837C115.311 216.5 115.53 216.31 115.896 216.31H116.534V215.555C116.534 214.09 117.251 213.38 118.702 213.38C119.097 213.38 119.405 213.46 119.588 213.6C119.734 213.717 119.815 213.856 119.815 214.032C119.815 214.325 119.639 214.508 119.346 214.508C119.039 214.508 118.98 214.449 118.628 214.449C118.064 214.449 117.786 214.786 117.786 215.497V216.31H118.87C119.229 216.31 119.456 216.507 119.456 216.837C119.456 217.167 119.229 217.364 118.87 217.364H117.793V223.37ZM121.705 221.957V217.372H121.148C120.789 217.372 120.562 217.174 120.562 216.844C120.562 216.515 120.782 216.31 121.148 216.31H121.712V215.042C121.712 214.603 121.946 214.347 122.334 214.347C122.73 214.347 122.964 214.603 122.964 215.042V216.31H123.997C124.363 216.31 124.583 216.515 124.583 216.844C124.583 217.174 124.356 217.372 123.997 217.372H122.972V221.971C122.972 222.792 123.177 223.033 123.887 223.033C124.092 223.033 124.239 223.011 124.378 223.011C124.664 223.011 124.861 223.194 124.861 223.48C124.861 223.685 124.766 223.854 124.539 223.963C124.334 224.066 124.048 224.117 123.631 224.117C122.239 224.117 121.705 223.561 121.705 221.957ZM130.01 224.125C128.926 224.125 128.069 223.648 127.725 222.865H127.659V223.385C127.659 223.824 127.439 224.073 127.051 224.073C126.67 224.073 126.451 223.817 126.451 223.37V214.134C126.451 213.695 126.685 213.431 127.081 213.431C127.476 213.431 127.71 213.695 127.71 214.134V217.518H127.776C128.011 216.72 128.934 216.178 130.054 216.178C131.863 216.178 133.006 217.445 133.006 219.466V220.829C133.006 222.857 131.849 224.125 130.01 224.125ZM127.71 220.88C127.71 222.125 128.575 223.026 129.783 223.026C131.021 223.026 131.724 222.132 131.724 220.58V219.781C131.724 218.207 131.006 217.276 129.754 217.276C128.501 217.276 127.71 218.17 127.71 219.583V220.88ZM138.001 216.17C139.891 216.17 141.304 217.408 141.304 219.562V220.733C141.304 222.894 139.891 224.132 138.001 224.132C136.104 224.132 134.69 222.894 134.69 220.733V219.562C134.69 217.408 136.104 216.17 138.001 216.17ZM138.001 217.269C136.756 217.269 135.965 218.221 135.965 219.671V220.624C135.965 222.11 136.756 223.041 138.001 223.041C139.246 223.041 140.022 222.11 140.022 220.624V219.671C140.022 218.221 139.246 217.269 138.001 217.269ZM143.721 221.957V217.372H143.165C142.806 217.372 142.579 217.174 142.579 216.844C142.579 216.515 142.798 216.31 143.165 216.31H143.729V215.042C143.729 214.603 143.963 214.347 144.351 214.347C144.747 214.347 144.981 214.603 144.981 215.042V216.31H146.014C146.38 216.31 146.6 216.515 146.6 216.844C146.6 217.174 146.373 217.372 146.014 217.372H144.988V221.971C144.988 222.792 145.193 223.033 145.904 223.033C146.109 223.033 146.255 223.011 146.395 223.011C146.68 223.011 146.878 223.194 146.878 223.48C146.878 223.685 146.783 223.854 146.556 223.963C146.351 224.066 146.065 224.117 145.647 224.117C144.256 224.117 143.721 223.561 143.721 221.957ZM147.984 216.537L148.592 214.435C148.68 214.112 148.914 213.922 149.229 213.922C149.639 213.922 149.976 214.339 149.808 214.742L148.899 216.8C148.812 217.02 148.65 217.137 148.445 217.137C148.13 217.137 147.903 216.837 147.984 216.537ZM150.972 216.537L151.573 214.435C151.661 214.112 151.902 213.922 152.21 213.922C152.62 213.922 152.957 214.339 152.789 214.742L151.88 216.8C151.8 217.02 151.631 217.137 151.426 217.137C151.111 217.137 150.884 216.837 150.972 216.537ZM162.054 222.975C161.592 223.722 160.809 224.125 159.834 224.125C158.333 224.125 157.322 223.172 157.322 221.759C157.322 220.36 158.34 219.488 160.032 219.488H162.068V218.741C162.068 217.752 161.475 217.247 160.369 217.247C159.717 217.247 159.278 217.474 158.816 218.001C158.641 218.207 158.472 218.28 158.245 218.28C157.952 218.28 157.754 218.082 157.754 217.782C157.754 217.35 158.055 216.925 158.67 216.573C159.117 216.317 159.695 216.178 160.45 216.178C162.303 216.178 163.328 217.086 163.328 218.734V223.377C163.328 223.817 163.101 224.073 162.713 224.073C162.339 224.073 162.12 223.824 162.105 223.407V222.975H162.054ZM158.611 221.729C158.611 222.528 159.241 223.07 160.179 223.07C161.241 223.07 162.068 222.337 162.068 221.378V220.506H160.098C159.153 220.506 158.611 220.946 158.611 221.729ZM170.462 222.784C170.242 223.561 169.275 224.125 168.14 224.125C166.338 224.125 165.174 222.857 165.174 220.924V219.386C165.174 217.445 166.368 216.178 168.177 216.178C169.253 216.178 170.103 216.654 170.411 217.438H170.469V214.134C170.469 213.688 170.704 213.431 171.099 213.431C171.495 213.431 171.729 213.688 171.729 214.134V223.37C171.729 223.817 171.517 224.073 171.128 224.073C170.748 224.073 170.535 223.824 170.528 223.385V222.784H170.462ZM166.456 220.638C166.456 222.14 167.188 223.026 168.44 223.026C169.678 223.026 170.469 222.154 170.469 220.77V219.386C170.469 218.163 169.598 217.276 168.396 217.276C167.173 217.276 166.456 218.177 166.456 219.664V220.638ZM179.002 222.784C178.782 223.561 177.815 224.125 176.68 224.125C174.878 224.125 173.714 222.857 173.714 220.924V219.386C173.714 217.445 174.908 216.178 176.717 216.178C177.793 216.178 178.643 216.654 178.951 217.438H179.009V214.134C179.009 213.688 179.244 213.431 179.639 213.431C180.035 213.431 180.269 213.688 180.269 214.134V223.37C180.269 223.817 180.057 224.073 179.668 224.073C179.288 224.073 179.075 223.824 179.068 223.385V222.784H179.002ZM174.996 220.638C174.996 222.14 175.728 223.026 176.98 223.026C178.218 223.026 179.009 222.154 179.009 220.77V219.386C179.009 218.163 178.138 217.276 176.937 217.276C175.713 217.276 174.996 218.177 174.996 219.664V220.638ZM182.122 222.433C182.122 222.081 182.334 221.869 182.671 221.869C182.876 221.869 183.03 221.971 183.287 222.286C183.755 222.828 184.356 223.099 185.14 223.099C186.128 223.099 186.751 222.652 186.751 221.942C186.751 221.4 186.355 220.99 185.682 220.829L184.217 220.492C182.876 220.184 182.232 219.51 182.232 218.426C182.232 217.057 183.331 216.17 185.044 216.17C185.813 216.17 186.524 216.368 187.066 216.727C187.527 217.035 187.813 217.452 187.813 217.833C187.813 218.155 187.601 218.353 187.278 218.353C187.051 218.353 186.934 218.28 186.626 217.965C186.114 217.416 185.667 217.203 184.993 217.203C184.048 217.203 183.47 217.635 183.47 218.346C183.47 218.902 183.829 219.239 184.598 219.43L186.026 219.774C187.366 220.096 187.989 220.748 187.989 221.839C187.989 223.246 186.875 224.132 185.074 224.132C184.29 224.132 183.55 223.949 182.979 223.626C182.43 223.312 182.122 222.879 182.122 222.433ZM49.2461 245.975C48.7847 246.722 48.001 247.125 47.0269 247.125C45.5254 247.125 44.5146 246.172 44.5146 244.759C44.5146 243.36 45.5327 242.488 47.2246 242.488H49.2607V241.741C49.2607 240.752 48.6675 240.247 47.5615 240.247C46.9097 240.247 46.4702 240.474 46.0088 241.001C45.833 241.207 45.6646 241.28 45.4375 241.28C45.1445 241.28 44.9468 241.082 44.9468 240.782C44.9468 240.35 45.2471 239.925 45.8623 239.573C46.3091 239.317 46.8877 239.178 47.6421 239.178C49.4951 239.178 50.5205 240.086 50.5205 241.734V246.377C50.5205 246.817 50.2935 247.073 49.9053 247.073C49.5317 247.073 49.312 246.824 49.2974 246.407V245.975H49.2461ZM45.8037 244.729C45.8037 245.528 46.4336 246.07 47.3711 246.07C48.4331 246.07 49.2607 245.337 49.2607 244.378V243.506H47.2905C46.3457 243.506 45.8037 243.946 45.8037 244.729ZM58.9507 246.37C58.9507 246.81 58.709 247.073 58.3135 247.073C57.918 247.073 57.6836 246.81 57.6836 246.37V242.115C57.6836 240.921 57.083 240.291 55.999 240.291C54.7319 240.291 53.9336 241.192 53.9336 242.693V246.37C53.9336 246.81 53.6992 247.073 53.3037 247.073C52.9082 247.073 52.6738 246.81 52.6738 246.37V239.932C52.6738 239.493 52.9155 239.229 53.3037 239.229C53.6919 239.229 53.9263 239.485 53.9263 239.917V240.708H53.9922C54.3145 239.734 55.1494 239.178 56.3286 239.178C57.9912 239.178 58.9507 240.115 58.9507 241.734V246.37ZM68.9043 245.726C68.6699 246.355 68.0327 247.125 66.5386 247.125C65.1177 247.125 63.9824 246.436 63.9824 244.656V239.903C63.9824 239.427 64.2534 239.222 64.6196 239.222C64.9785 239.222 65.2495 239.427 65.2495 239.903V244.334C65.2495 245.608 66.0186 246.019 66.8975 246.019C68.1426 246.019 68.9702 245.191 68.9702 244.202V239.903C68.9702 239.427 69.2412 239.222 69.6074 239.222C69.9663 239.222 70.2373 239.427 70.2373 239.903V246.399C70.2373 246.875 69.9663 247.073 69.6074 247.073C69.2485 247.073 68.9775 246.868 68.9775 246.414V245.726H68.9043ZM78.7554 246.37C78.7554 246.81 78.5137 247.073 78.1182 247.073C77.7227 247.073 77.4883 246.81 77.4883 246.37V242.115C77.4883 240.921 76.8877 240.291 75.8037 240.291C74.5366 240.291 73.7383 241.192 73.7383 242.693V246.37C73.7383 246.81 73.5039 247.073 73.1084 247.073C72.7129 247.073 72.4785 246.81 72.4785 246.37V239.932C72.4785 239.493 72.7202 239.229 73.1084 239.229C73.4966 239.229 73.731 239.485 73.731 239.917V240.708H73.7969C74.1191 239.734 74.9541 239.178 76.1333 239.178C77.7959 239.178 78.7554 240.115 78.7554 241.734V246.37ZM80.5938 243.77V242.554C80.5938 240.562 81.9121 239.17 83.8091 239.17C85.6475 239.17 86.9365 240.511 86.9365 242.4C86.9365 243.235 86.79 243.47 86.248 243.47H81.8682V243.873C81.8755 245.206 82.6738 246.041 83.9922 246.041C84.644 246.041 85.1494 245.843 85.5596 245.447C85.9551 245.081 86.043 245.022 86.2554 245.022C86.5337 245.022 86.7461 245.25 86.7461 245.557C86.7461 245.784 86.6069 246.062 86.3872 246.29C85.9038 246.81 84.9663 247.132 83.9336 247.132C81.8682 247.132 80.5938 245.85 80.5938 243.77ZM81.8682 242.444H85.6841V242.422C85.6841 241.097 84.959 240.254 83.8237 240.254C82.6592 240.254 81.8682 241.133 81.8682 242.422V242.444ZM88.4233 246.502C88.4233 246.355 88.4746 246.187 88.5625 246.07L90.606 243.162L88.4893 240.276C88.4087 240.167 88.3501 239.976 88.3501 239.83C88.3501 239.515 88.6064 239.258 88.9287 239.258C89.1704 239.258 89.3755 239.39 89.5513 239.654L91.2871 242.232H91.3677L93.1035 239.661C93.2866 239.39 93.4697 239.266 93.7188 239.266C94.0483 239.266 94.2827 239.507 94.2827 239.844C94.2827 239.983 94.2388 240.115 94.1509 240.24L92.0488 243.162L94.1582 246.048C94.2461 246.165 94.3047 246.341 94.3047 246.487C94.3047 246.81 94.0483 247.073 93.7334 247.073C93.4844 247.073 93.2646 246.934 93.0962 246.678L91.3677 244.092H91.2871L89.6025 246.663C89.4194 246.941 89.229 247.073 89.002 247.073C88.6797 247.073 88.4233 246.817 88.4233 246.502ZM97.564 249.109C97.564 249.549 97.3296 249.812 96.9341 249.812C96.5386 249.812 96.3042 249.549 96.3042 249.109V239.932C96.3042 239.485 96.5239 239.229 96.9048 239.229C97.2856 239.229 97.5054 239.478 97.5054 239.917V240.525H97.5713C97.8862 239.69 98.7798 239.178 99.8857 239.178C101.695 239.178 102.837 240.452 102.837 242.466V243.829C102.837 245.857 101.68 247.125 99.8418 247.125C98.7798 247.125 97.9814 246.67 97.6299 245.865H97.564V249.109ZM97.564 243.909C97.564 245.162 98.3989 246.026 99.6074 246.026C100.853 246.026 101.57 245.125 101.57 243.565V242.73C101.57 241.163 100.853 240.276 99.5708 240.276C98.333 240.276 97.564 241.126 97.564 242.532V243.909ZM104.471 243.77V242.554C104.471 240.562 105.789 239.17 107.686 239.17C109.524 239.17 110.813 240.511 110.813 242.4C110.813 243.235 110.667 243.47 110.125 243.47H105.745V243.873C105.752 245.206 106.551 246.041 107.869 246.041C108.521 246.041 109.026 245.843 109.437 245.447C109.832 245.081 109.92 245.022 110.132 245.022C110.411 245.022 110.623 245.25 110.623 245.557C110.623 245.784 110.484 246.062 110.264 246.29C109.781 246.81 108.843 247.132 107.811 247.132C105.745 247.132 104.471 245.85 104.471 243.77ZM105.745 242.444H109.561V242.422C109.561 241.097 108.836 240.254 107.701 240.254C106.536 240.254 105.745 241.133 105.745 242.422V242.444ZM112.41 243.814V242.481C112.41 240.489 113.582 239.17 115.596 239.17C116.167 239.17 116.849 239.28 117.435 239.632C117.925 239.925 118.394 240.416 118.394 240.936C118.394 241.265 118.204 241.521 117.852 241.521C117.508 241.521 117.347 241.294 117.2 241.089C116.819 240.555 116.292 240.291 115.611 240.291C114.336 240.291 113.692 241.221 113.692 242.547V243.748C113.692 245.059 114.314 246.011 115.618 246.011C116.204 246.011 116.775 245.821 117.229 245.213C117.361 245.037 117.544 244.781 117.874 244.781C118.145 244.781 118.416 244.949 118.416 245.359C118.416 245.865 117.999 246.355 117.435 246.678C116.834 247.029 116.175 247.132 115.618 247.132C113.582 247.132 112.41 245.828 112.41 243.814ZM121.031 244.957V240.372H120.474C120.115 240.372 119.888 240.174 119.888 239.844C119.888 239.515 120.108 239.31 120.474 239.31H121.038V238.042C121.038 237.603 121.272 237.347 121.661 237.347C122.056 237.347 122.291 237.603 122.291 238.042V239.31H123.323C123.689 239.31 123.909 239.515 123.909 239.844C123.909 240.174 123.682 240.372 123.323 240.372H122.298V244.971C122.298 245.792 122.503 246.033 123.213 246.033C123.418 246.033 123.565 246.011 123.704 246.011C123.99 246.011 124.188 246.194 124.188 246.48C124.188 246.685 124.092 246.854 123.865 246.963C123.66 247.066 123.375 247.117 122.957 247.117C121.565 247.117 121.031 246.561 121.031 244.957ZM125.286 243.77V242.554C125.286 240.562 126.604 239.17 128.501 239.17C130.34 239.17 131.629 240.511 131.629 242.4C131.629 243.235 131.482 243.47 130.94 243.47H126.561V243.873C126.568 245.206 127.366 246.041 128.685 246.041C129.336 246.041 129.842 245.843 130.252 245.447C130.647 245.081 130.735 245.022 130.948 245.022C131.226 245.022 131.438 245.25 131.438 245.557C131.438 245.784 131.299 246.062 131.08 246.29C130.596 246.81 129.659 247.132 128.626 247.132C126.561 247.132 125.286 245.85 125.286 243.77ZM126.561 242.444H130.376V242.422C130.376 241.097 129.651 240.254 128.516 240.254C127.352 240.254 126.561 241.133 126.561 242.422V242.444ZM138.514 245.784C138.294 246.561 137.327 247.125 136.192 247.125C134.39 247.125 133.226 245.857 133.226 243.924V242.386C133.226 240.445 134.419 239.178 136.229 239.178C137.305 239.178 138.155 239.654 138.462 240.438H138.521V237.134C138.521 236.688 138.755 236.431 139.151 236.431C139.546 236.431 139.781 236.688 139.781 237.134V246.37C139.781 246.817 139.568 247.073 139.18 247.073C138.799 247.073 138.587 246.824 138.58 246.385V245.784H138.514ZM134.507 243.638C134.507 245.14 135.24 246.026 136.492 246.026C137.73 246.026 138.521 245.154 138.521 243.77V242.386C138.521 241.163 137.649 240.276 136.448 240.276C135.225 240.276 134.507 241.177 134.507 242.664V243.638ZM145.552 244.957V240.372H144.996C144.637 240.372 144.41 240.174 144.41 239.844C144.41 239.515 144.629 239.31 144.996 239.31H145.56V238.042C145.56 237.603 145.794 237.347 146.182 237.347C146.578 237.347 146.812 237.603 146.812 238.042V239.31H147.845C148.211 239.31 148.431 239.515 148.431 239.844C148.431 240.174 148.204 240.372 147.845 240.372H146.819V244.971C146.819 245.792 147.024 246.033 147.735 246.033C147.94 246.033 148.086 246.011 148.226 246.011C148.511 246.011 148.709 246.194 148.709 246.48C148.709 246.685 148.614 246.854 148.387 246.963C148.182 247.066 147.896 247.117 147.479 247.117C146.087 247.117 145.552 246.561 145.552 244.957ZM151.573 245.887L150.02 240.328C149.983 240.167 149.961 240.035 149.961 239.925C149.961 239.537 150.232 239.266 150.628 239.266C150.95 239.266 151.192 239.522 151.302 239.983L152.525 245.44H152.576L153.975 240.408C154.231 239.463 154.4 239.266 154.883 239.266C155.367 239.266 155.528 239.456 155.799 240.408L157.227 245.44H157.286L158.553 239.954C158.663 239.507 158.882 239.266 159.19 239.266C159.549 239.266 159.791 239.507 159.791 239.859C159.791 239.954 159.769 240.057 159.717 240.24L158.216 245.887C157.952 246.861 157.762 247.073 157.3 247.073C156.824 247.073 156.604 246.861 156.326 245.887L154.905 241.053H154.869L153.484 245.887C153.206 246.861 153.03 247.073 152.547 247.073C152.034 247.073 151.844 246.861 151.573 245.887ZM161.424 237.376C161.424 236.915 161.783 236.585 162.222 236.585C162.698 236.585 163.05 236.915 163.05 237.376C163.05 237.837 162.698 238.182 162.222 238.182C161.783 238.182 161.424 237.837 161.424 237.376ZM162.859 246.37C162.859 246.846 162.588 247.073 162.229 247.073C161.871 247.073 161.6 246.839 161.6 246.37V239.932C161.6 239.456 161.878 239.229 162.237 239.229C162.596 239.229 162.859 239.463 162.859 239.932V246.37ZM164.749 245.433C164.749 245.081 164.961 244.869 165.298 244.869C165.503 244.869 165.657 244.971 165.914 245.286C166.382 245.828 166.983 246.099 167.767 246.099C168.755 246.099 169.378 245.652 169.378 244.942C169.378 244.4 168.982 243.99 168.309 243.829L166.844 243.492C165.503 243.184 164.859 242.51 164.859 241.426C164.859 240.057 165.958 239.17 167.671 239.17C168.44 239.17 169.151 239.368 169.693 239.727C170.154 240.035 170.44 240.452 170.44 240.833C170.44 241.155 170.228 241.353 169.905 241.353C169.678 241.353 169.561 241.28 169.253 240.965C168.741 240.416 168.294 240.203 167.62 240.203C166.675 240.203 166.097 240.635 166.097 241.346C166.097 241.902 166.456 242.239 167.225 242.43L168.653 242.774C169.993 243.096 170.616 243.748 170.616 244.839C170.616 246.246 169.502 247.132 167.701 247.132C166.917 247.132 166.177 246.949 165.606 246.626C165.057 246.312 164.749 245.879 164.749 245.433ZM172.916 244.957V240.372H172.359C172 240.372 171.773 240.174 171.773 239.844C171.773 239.515 171.993 239.31 172.359 239.31H172.923V238.042C172.923 237.603 173.157 237.347 173.545 237.347C173.941 237.347 174.175 237.603 174.175 238.042V239.31H175.208C175.574 239.31 175.794 239.515 175.794 239.844C175.794 240.174 175.567 240.372 175.208 240.372H174.183V244.971C174.183 245.792 174.388 246.033 175.098 246.033C175.303 246.033 175.45 246.011 175.589 246.011C175.875 246.011 176.072 246.194 176.072 246.48C176.072 246.685 175.977 246.854 175.75 246.963C175.545 247.066 175.259 247.117 174.842 247.117C173.45 247.117 172.916 246.561 172.916 244.957ZM177.698 242.986L177.581 237.471C177.574 237.083 177.881 236.775 178.277 236.775C178.665 236.775 178.987 237.083 178.98 237.471L178.855 242.986C178.841 243.309 178.592 243.565 178.277 243.565C177.955 243.565 177.698 243.309 177.698 242.986ZM177.42 246.312C177.42 245.843 177.801 245.477 178.262 245.477C178.731 245.477 179.104 245.843 179.104 246.312C179.104 246.773 178.731 247.139 178.262 247.139C177.801 247.139 177.42 246.773 177.42 246.312Z" fill="#4D54E3"/>
<path d="M34 190.266C13.6304 170.221 1 142.336 1 111.5C1 50.4725 50.4725 1 111.5 1C172.527 1 222 50.4725 222 111.5C222 142.336 209.37 170.221 189 190.266" stroke="#D6D8FF" stroke-width="2" stroke-linecap="round"/>
<g filter="url(#filter0_d_660_1100)">
<rect x="32" y="108.444" width="160" height="40.8889" rx="12" fill="#F6F9FE"/>
<rect x="32.5" y="108.944" width="159" height="39.8889" rx="11.5" stroke="#E3EBF5"/>
</g>
<rect x="161.778" y="119.111" width="19.5556" height="19.5556" rx="6" fill="#D6D8FF"/>
<path fill-rule="evenodd" clip-rule="evenodd" d="M177.259 128.889C177.259 129.105 177.173 129.312 177.021 129.465L172.947 133.539C172.628 133.857 172.112 133.857 171.794 133.539C171.476 133.221 171.476 132.705 171.794 132.387L174.477 129.704L166.667 129.704C166.217 129.704 165.852 129.339 165.852 128.889C165.852 128.439 166.217 128.074 166.667 128.074L174.477 128.074L171.794 125.391C171.476 125.073 171.476 124.557 171.794 124.239C172.112 123.92 172.628 123.92 172.947 124.239L177.021 128.313C177.173 128.466 177.259 128.673 177.259 128.889Z" fill="white"/>
<path d="M49.8803 125.2V127.048H47.2343V135H45.3023V127.048H42.6703V125.2H49.8803ZM52.9353 135.196C50.8773 135.196 49.2393 133.586 49.2393 131.5C49.2393 129.414 50.8773 127.804 52.9353 127.804C54.9933 127.804 56.6453 129.414 56.6453 131.5C56.6453 133.586 54.9933 135.196 52.9353 135.196ZM52.9353 133.432C54.0133 133.432 54.8393 132.634 54.8393 131.5C54.8393 130.366 54.0133 129.568 52.9353 129.568C51.8713 129.568 51.0453 130.366 51.0453 131.5C51.0453 132.634 51.8713 133.432 52.9353 133.432ZM61.8078 127.804C63.2918 127.804 64.4538 128.84 64.4538 130.702V135H62.6478V130.926C62.6478 129.974 62.0738 129.484 61.2618 129.484C60.3798 129.484 59.7218 130.002 59.7218 131.22V135H57.9158V128H59.7218V128.784C60.1418 128.154 60.8698 127.804 61.8078 127.804ZM70.4095 128H72.3415L69.7935 135C69.0655 137.016 67.8755 137.898 66.0975 137.8V136.12C67.0915 136.134 67.5955 135.714 67.9315 134.776L65.0615 128H67.0355L68.8555 132.704L70.4095 128ZM80.131 135.196C78.129 135.196 76.813 134.23 76.281 132.774L77.933 131.808C78.283 132.718 78.969 133.306 80.187 133.306C81.349 133.306 81.755 132.816 81.755 132.27C81.755 131.542 81.097 131.262 79.641 130.842C78.143 130.408 76.687 129.778 76.687 127.916C76.687 126.068 78.227 125.004 79.907 125.004C81.517 125.004 82.749 125.83 83.407 127.202L81.783 128.14C81.433 127.398 80.901 126.88 79.907 126.88C79.095 126.88 78.619 127.3 78.619 127.86C78.619 128.462 78.997 128.784 80.481 129.232C82.035 129.722 83.687 130.24 83.687 132.242C83.687 134.076 82.217 135.196 80.131 135.196ZM88.662 129.736H87.08V132.648C87.08 133.404 87.626 133.418 88.662 133.362V135C86.128 135.28 85.274 134.538 85.274 132.648V129.736H84.056V128H85.274V126.586L87.08 126.04V128H88.662V129.736ZM95.0366 128H96.8426V135H95.0366V134.174C94.5326 134.804 93.7766 135.196 92.7546 135.196C90.8926 135.196 89.3526 133.586 89.3526 131.5C89.3526 129.414 90.8926 127.804 92.7546 127.804C93.7766 127.804 94.5326 128.196 95.0366 128.826V128ZM93.0906 133.474C94.2106 133.474 95.0366 132.676 95.0366 131.5C95.0366 130.324 94.2106 129.526 93.0906 129.526C91.9846 129.526 91.1586 130.324 91.1586 131.5C91.1586 132.676 91.9846 133.474 93.0906 133.474ZM100.286 129.204C100.65 128.252 101.532 127.86 102.414 127.86V129.876C101.476 129.764 100.286 130.184 100.286 131.654V135H98.4803V128H100.286V129.204ZM109.925 135H107.825L105.277 131.822V135H103.471V125.2H105.277V131.08L107.685 128H109.841L107.027 131.458L109.925 135Z" fill="black"/>
<g filter="url(#filter1_f_660_1100)">
<path fill-rule="evenodd" clip-rule="evenodd" d="M112 46.6667C94.0815 46.6667 79.5556 61.1925 79.5556 79.1111C79.5556 97.0297 94.0815 111.556 112 111.556C129.919 111.556 144.444 97.0297 144.444 79.1111C144.444 61.1925 129.919 46.6667 112 46.6667ZM76.8889 79.1111C76.8889 59.7198 92.6087 44 112 44C131.391 44 147.111 59.7198 147.111 79.1111C147.111 98.5024 131.391 114.222 112 114.222C92.6087 114.222 76.8889 98.5024 76.8889 79.1111Z" fill="#858BFF"/>
</g>
<path d="M145.778 79.1112C145.778 97.7661 130.655 112.889 112 112.889C93.345 112.889 78.2222 97.7661 78.2222 79.1112C78.2222 60.4562 93.345 45.3334 112 45.3334C130.655 45.3334 145.778 60.4562 145.778 79.1112Z" fill="white"/>
<path fill-rule="evenodd" clip-rule="evenodd" d="M112 111.111C129.673 111.111 144 96.7843 144 79.1112C144 61.438 129.673 47.1112 112 47.1112C94.3268 47.1112 79.9999 61.438 79.9999 79.1112C79.9999 96.7843 94.3268 111.111 112 111.111ZM112 112.889C130.655 112.889 145.778 97.7661 145.778 79.1112C145.778 60.4562 130.655 45.3334 112 45.3334C93.345 45.3334 78.2222 60.4562 78.2222 79.1112C78.2222 97.7661 93.345 112.889 112 112.889Z" fill="#858BFF"/>
<path fill-rule="evenodd" clip-rule="evenodd" d="M130.705 56.471C137.222 61.862 141.372 70.0054 141.372 79.1113C141.372 95.3221 128.213 108.484 112 108.484C95.7917 108.484 82.6281 95.3221 82.6281 79.1113C82.6281 62.9 95.7917 49.7384 112 49.7384C115.137 49.7384 118.162 50.2315 120.999 51.144V63.364C118.604 62.277 115.646 61.5958 112 61.5958C106.167 61.5958 102.104 63.3393 99.2777 65.6961C94.8365 69.3916 93.2947 74.8321 93.2947 79.1743C93.2947 83.5166 94.8365 88.9571 99.2777 92.6521C102.104 95.0099 106.167 96.7529 112 96.7529C117.833 96.7529 121.896 95.0099 124.727 92.6521C129.028 89.0725 130.608 83.8546 130.701 79.5845L130.705 79.1743V56.471ZM120.989 78.8088C120.926 76.9523 120.354 74.6871 118.516 73.1579C117.081 71.9637 114.958 71.3053 112 71.3053C109.047 71.3053 106.924 71.9637 105.489 73.1579C103.53 74.7889 103.006 77.2577 103.006 79.1743C103.006 81.0909 103.53 83.5598 105.489 85.1908C106.924 86.385 109.047 87.0434 112 87.0434C114.958 87.0434 117.081 86.385 118.516 85.1908C120.475 83.5598 120.999 81.0909 120.999 79.1743L120.989 78.8088Z" fill="#858BFF"/>
<defs>
<filter id="filter0_d_660_1100" x="23" y="101.444" width="178" height="58.8889" filterUnits="userSpaceOnUse" color-interpolation-filters="sRGB">
<feFlood flood-opacity="0" result="BackgroundImageFix"/>
<feColorMatrix in="SourceAlpha" type="matrix" values="0 0 0 0 0 0 0 0 0 0 0 0 0 0 0 0 0 0 127 0" result="hardAlpha"/>
<feMorphology radius="1" operator="dilate" in="SourceAlpha" result="effect1_dropShadow_660_1100"/>
<feOffset dy="2"/>
<feGaussianBlur stdDeviation="4"/>
<feComposite in2="hardAlpha" operator="out"/>
<feColorMatrix type="matrix" values="0 0 0 0 0.01875 0 0 0 0 0.0335406 0 0 0 0 0.166667 0 0 0 0.1 0"/>
<feBlend mode="normal" in2="BackgroundImageFix" result="effect1_dropShadow_660_1100"/>
<feBlend mode="normal" in="SourceGraphic" in2="effect1_dropShadow_660_1100" result="shape"/>
</filter>
<filter id="filter1_f_660_1100" x="72.8889" y="40" width="78.2222" height="78.2222" filterUnits="userSpaceOnUse" color-interpolation-filters="sRGB">
<feFlood flood-opacity="0" result="BackgroundImageFix"/>
<feBlend mode="normal" in="SourceGraphic" in2="BackgroundImageFix" result="shape"/>
<feGaussianBlur stdDeviation="2" result="effect1_foregroundBlur_660_1100"/>
</filter>
</defs>
</svg>
