<svg width="282" height="125" viewBox="0 0 282 125" fill="none" xmlns="http://www.w3.org/2000/svg">
<g filter="url(#filter0_d_658_197)">
<rect x="9" y="7" width="264" height="107" rx="16" fill="black"/>
</g>
<path opacity="0.25" d="M272.5 98V23C272.5 14.1634 265.337 7 256.5 7H133L194.5 114H256.5C265.337 114 272.5 106.837 272.5 98Z" fill="url(#paint0_linear_658_197)"/>
<path d="M57.6097 58.4172L38.181 79.0395C38.1818 79.0437 38.1832 79.0473 38.1839 79.0517C38.7798 81.291 40.8251 82.9399 43.2526 82.9399C44.2229 82.9399 45.134 82.6775 45.9153 82.217L45.9773 82.1806L67.8479 69.5603L57.6097 58.4172Z" fill="#EB3131"/>
<path d="M77.2669 54.9065L77.2483 54.8937L67.8061 49.4199L57.1682 58.886L67.843 69.5594L77.2354 64.1401C78.8821 63.2511 80 61.5151 80 59.5133C80 57.5258 78.8973 55.7984 77.2669 54.9065Z" fill="#F6B60B"/>
<path d="M38.1782 39.8994C38.0614 40.3301 38 40.7813 38 41.2497V77.6912C38 78.1588 38.0607 78.6114 38.1789 79.0406L58.2783 58.9453L38.1782 39.8994Z" fill="#5778C5"/>
<path d="M57.7534 59.47L67.8103 49.4161L45.9644 36.7501C45.1703 36.2745 44.2435 36 43.2518 36C40.8244 36 38.7763 37.6519 38.1803 39.8938C38.1796 39.896 38.1796 39.8975 38.1796 39.8994L57.7534 59.47Z" fill="#3BAD49"/>
<path d="M210.372 78.7812H213.498V57.8404H210.372V78.7812ZM238.524 65.3843L234.941 74.4627H234.834L231.116 65.3843H227.749L233.327 78.0727L230.146 85.1311H233.406L242 65.3849L238.524 65.3843ZM220.798 76.4026C219.776 76.4026 218.348 75.8902 218.348 74.6242C218.348 73.008 220.126 72.3884 221.661 72.3884C223.034 72.3884 223.682 72.6842 224.517 73.0886C224.274 75.0285 222.604 76.4026 220.798 76.4026ZM221.177 64.9263C218.914 64.9263 216.57 65.9234 215.6 68.1324L218.374 69.2905C218.967 68.1324 220.071 67.7556 221.23 67.7556C222.847 67.7556 224.49 68.7246 224.517 70.4493V70.6645C223.95 70.3413 222.738 69.8565 221.257 69.8565C218.265 69.8565 215.222 71.4993 215.222 74.5706C215.222 77.3723 217.674 79.1775 220.421 79.1775C222.522 79.1775 223.682 78.2346 224.408 77.1296H224.517V78.7469H227.535V70.7181C227.535 67.0004 224.758 64.9263 221.177 64.9263ZM201.86 67.9334H197.415V60.7559H201.86C204.197 60.7559 205.523 62.6901 205.523 64.3446C205.523 65.9673 204.197 67.9334 201.86 67.9334ZM201.78 57.8409H194.291V78.7818H197.415V70.8485H201.78C205.244 70.8485 208.649 68.3412 208.649 64.3454C208.649 60.3503 205.244 57.8409 201.78 57.8409ZM160.942 76.4061C158.783 76.4061 156.975 74.5976 156.975 72.1159C156.975 69.6054 158.783 67.7714 160.942 67.7714C163.074 67.7714 164.747 69.6055 164.747 72.1159C164.747 74.5976 163.074 76.4061 160.942 76.4061ZM164.531 66.5565H164.423C163.721 65.7202 162.371 64.9646 160.672 64.9646C157.11 64.9646 153.845 68.0954 153.845 72.1159C153.845 76.1091 157.11 79.2124 160.672 79.2124C162.371 79.2124 163.721 78.4566 164.423 77.5937H164.531V78.6183C164.531 81.3448 163.074 82.8012 160.726 82.8012C158.811 82.8012 157.623 81.4252 157.137 80.265L154.412 81.3983C155.194 83.2864 157.271 85.608 160.726 85.608C164.397 85.608 167.5 83.4487 167.5 78.1863V65.3962H164.531L164.531 66.5565ZM169.659 78.7806H172.788V57.8397H169.659V78.7806ZM177.403 71.8726C177.322 69.12 179.536 67.7171 181.127 67.7171C182.369 67.7171 183.42 68.338 183.772 69.2279L177.403 71.8726ZM187.117 69.4975C186.524 67.9063 184.716 64.9646 181.019 64.9646C177.348 64.9646 174.299 67.8519 174.299 72.0886C174.299 76.0824 177.322 79.2125 181.369 79.2125C184.634 79.2125 186.524 77.2163 187.307 76.0555L184.878 74.4362C184.068 75.6237 182.962 76.4063 181.369 76.4063C179.778 76.4063 178.644 75.6775 177.916 74.2472L187.441 70.3077L187.117 69.4975ZM111.227 67.1505V70.1727H118.458C118.242 71.8727 117.676 73.1138 116.812 73.9775C115.759 75.0296 114.113 76.1903 111.226 76.1903C106.774 76.1903 103.293 72.6015 103.293 68.149C103.293 63.6965 106.774 60.1072 111.226 60.1072C113.628 60.1072 115.382 61.0519 116.677 62.2662L118.81 60.1339C117.001 58.4072 114.6 57.085 111.226 57.085C105.127 57.085 100 62.0503 100 68.149C100 74.2471 105.127 79.2125 111.226 79.2125C114.518 79.2125 117.001 78.133 118.944 76.1093C120.941 74.1123 121.562 71.306 121.562 69.0389C121.562 68.3381 121.507 67.6905 121.399 67.1505H111.227ZM129.784 76.4061C127.625 76.4061 125.763 74.6251 125.763 72.0886C125.763 69.525 127.625 67.7715 129.784 67.7715C131.943 67.7715 133.805 69.525 133.805 72.0886C133.805 74.6251 131.943 76.4061 129.784 76.4061ZM129.784 64.9646C125.843 64.9646 122.633 67.9598 122.633 72.0886C122.633 76.1903 125.843 79.2125 129.784 79.2125C133.724 79.2125 136.935 76.1903 136.935 72.0886C136.935 67.9598 133.724 64.9646 129.784 64.9646ZM145.384 76.4061C143.226 76.4061 141.363 74.6251 141.363 72.0886C141.363 69.525 143.226 67.7715 145.384 67.7715C147.543 67.7715 149.404 69.525 149.404 72.0886C149.404 74.6251 147.543 76.4061 145.384 76.4061ZM145.384 64.9646C141.444 64.9646 138.233 67.9598 138.233 72.0886C138.233 76.1903 141.444 79.2125 145.384 79.2125C149.324 79.2125 152.535 76.1903 152.535 72.0886C152.535 67.9598 149.324 64.9646 145.384 64.9646Z" fill="white"/>
<path d="M110.64 44.9149H105.754V46.1241H109.415C109.316 47.1108 108.923 47.8855 108.261 48.4482C107.599 49.011 106.754 49.2936 105.754 49.2936C104.657 49.2936 103.728 48.9115 102.967 48.1525C102.221 47.3779 101.841 46.4199 101.841 45.2657C101.841 44.1117 102.221 43.1537 102.967 42.3791C103.728 41.6201 104.657 41.2406 105.754 41.2406C106.317 41.2406 106.853 41.3374 107.345 41.5495C107.837 41.7613 108.232 42.0571 108.541 42.4367L109.47 41.5076C109.049 41.0285 108.515 40.6622 107.853 40.3952C107.191 40.1282 106.5 40.0001 105.754 40.0001C104.291 40.0001 103.05 40.5078 102.037 41.5207C101.025 42.5361 100.517 43.7871 100.517 45.2658C100.517 46.7444 101.025 47.9982 102.037 49.0111C103.05 50.0238 104.291 50.5317 105.754 50.5317C107.29 50.5317 108.515 50.0396 109.457 49.0398C110.287 48.2076 110.711 47.0822 110.711 45.6742C110.711 45.436 110.682 45.1819 110.64 44.9149ZM112.533 40.2249V50.3065H118.419V49.0685H113.829V45.8704H117.969V44.6612H113.829V41.4656H118.419V40.2249L112.533 40.2249ZM126.673 41.4656V40.2249H119.745V41.4656H122.561V50.3064H123.856V41.4656H126.673ZM132.944 40.2249H131.649V50.3065H132.944V40.2249ZM141.495 41.4656V40.2249H134.568V41.4656H137.384V50.3064H138.679V41.4656H141.495ZM154.568 41.5363C153.568 40.5077 152.344 40 150.881 40C149.415 40 148.19 40.5077 147.19 41.5206C146.191 42.5204 145.699 43.774 145.699 45.2657C145.699 46.7574 146.191 48.0112 147.19 49.011C148.19 50.0237 149.415 50.5316 150.881 50.5316C152.33 50.5316 153.568 50.0238 154.568 49.011C155.568 48.0112 156.06 46.7575 156.06 45.2657C156.06 43.787 155.568 42.5359 154.568 41.5363ZM148.12 42.379C148.865 41.62 149.781 41.2405 150.881 41.2405C151.977 41.2405 152.893 41.6201 153.626 42.379C154.372 43.1249 154.738 44.0983 154.738 45.2657C154.738 46.4356 154.372 47.4065 153.626 48.1525C152.893 48.9114 151.977 49.2935 150.881 49.2935C149.781 49.2935 148.865 48.9114 148.12 48.1525C147.389 47.3908 147.023 46.4356 147.023 45.2657C147.023 44.0984 147.389 43.1405 148.12 42.379ZM159.138 44.0279L159.083 42.0831H159.138L164.262 50.3063H165.615V40.2248H164.32V46.124L164.375 48.0687H164.32L159.421 40.2248H157.842V50.3063H159.138V44.0279Z" fill="white" stroke="white" stroke-width="0.26666" stroke-miterlimit="10"/>
<defs>
<filter id="filter0_d_658_197" x="0" y="0" width="282" height="125" filterUnits="userSpaceOnUse" color-interpolation-filters="sRGB">
<feFlood flood-opacity="0" result="BackgroundImageFix"/>
<feColorMatrix in="SourceAlpha" type="matrix" values="0 0 0 0 0 0 0 0 0 0 0 0 0 0 0 0 0 0 127 0" result="hardAlpha"/>
<feMorphology radius="1" operator="dilate" in="SourceAlpha" result="effect1_dropShadow_658_197"/>
<feOffset dy="2"/>
<feGaussianBlur stdDeviation="4"/>
<feComposite in2="hardAlpha" operator="out"/>
<feColorMatrix type="matrix" values="0 0 0 0 0.01875 0 0 0 0 0.0335406 0 0 0 0 0.166667 0 0 0 0.3 0"/>
<feBlend mode="normal" in2="BackgroundImageFix" result="effect1_dropShadow_658_197"/>
<feBlend mode="normal" in="SourceGraphic" in2="effect1_dropShadow_658_197" result="shape"/>
</filter>
<linearGradient id="paint0_linear_658_197" x1="211" y1="-44" x2="256" y2="92" gradientUnits="userSpaceOnUse">
<stop stop-color="white"/>
<stop offset="1" stop-color="white" stop-opacity="0"/>
</linearGradient>
</defs>
</svg>
